<mxfile host="app.diagrams.net" modified="2022-06-17T02:31:37.171Z" agent="5.0 (Windows)" etag="zmHP__I91RI2BKxX-AAW" version="20.0.1" type="github">
  <diagram id="T5qaHaJ7Ngj0KOXqmceq" name="Page-1">
    <mxGraphModel dx="1502" dy="675" grid="1" gridSize="10" guides="1" tooltips="1" connect="1" arrows="1" fold="1" page="1" pageScale="1" pageWidth="850" pageHeight="1100" math="0" shadow="0">
      <root>
        <mxCell id="0" />
        <mxCell id="1" parent="0" />
        <mxCell id="LftuFVGWoGidU3K9B_D_-1" value="" style="ellipse;whiteSpace=wrap;html=1;" vertex="1" parent="1">
          <mxGeometry x="425" y="310" width="120" height="80" as="geometry" />
        </mxCell>
      </root>
    </mxGraphModel>
  </diagram>
</mxfile>
